<svg xmlns="http://www.w3.org/2000/svg" width="236" height="40" fill="none"><path fill="#000" d="M33.9555 0H6.54446C2.99909 0 .125 2.85624.125 6.37958V33.6204C.125 37.1438 2.99909 40 6.54446 40H33.9555c3.5454 0 6.4195-2.8562 6.4195-6.3796V6.37958C40.375 2.85624 37.5009 0 33.9555 0Z"/><path fill="#000" fill-opacity=".2" d="M33.9555 0H6.54446C2.99909 0 .125 2.85624.125 6.37958V33.6204C.125 37.1438 2.99909 40 6.54446 40H33.9555c3.5454 0 6.4195-2.8562 6.4195-6.3796V6.37958C40.375 2.85624 37.5009 0 33.9555 0Z"/><path fill="#000" fill-opacity=".2" d="M33.9555 0H6.54446C2.99909 0 .125 2.85624.125 6.37958V33.6204C.125 37.1438 2.99909 40 6.54446 40H33.9555c3.5454 0 6.4195-2.8562 6.4195-6.3796V6.37958C40.375 2.85624 37.5009 0 33.9555 0Z"/><path fill="url(#a)" d="M30.6958 34.4915s1.7741-2.928-2.377-5.0255c0 0 .8037 3.1314-1.0773 6.034h-1.9323s-.0856-.6102.731-.9195c1.71-.6526 1.7784-3.4365 1.2782-3.7713-1.5262-1.0169-2.129-1.8856-1.7356-4.0975 0 0-2.642.9577-5.9253.5466-.171-.0212-.3377.0594-.4232.2077-.1753.3008-.5302.8432-1.1158 1.4703 0 0-.1497 1.7331-.543 2.9662 0 0 .1497 2.1102-.389 3.5933h-2.3086s.0257-.9195 1.1372-1.0382c1.3595-.1441-.2437-4.3348-.2437-4.3348s-.0684 2.2839-1.4535 5.3645h-1.7656s0-.8899.8978-1.1102c1.4578-.3602.808-2.9619.5728-4.4069-.2351-1.4491-.5643-4.1568-1.757-5.6611-1.1928-1.5042-1.7998-1.4915-1.8725-4.2543 0 0-1.01321-1.5848-.64983-3.6738 0 0-.75669-2.5085.38053-6.2162 0 0-2.68907-.54236-2.74038-1.20339-.05557-.66103.14536-1.41104.86357-1.4746.71821-.06356 1.76991-.1695 1.77421-.91951 0-.75001-.91492-1.74579-.34633-2.03817.53013-.27543 1.14573 1.50003 1.55183 1.22036.2651-.18221-.7225-1.13985-.0769-1.00849.265.05508 2.5137.79238 3.2747 4.68228.761 3.88992.4446 6.48742 1.5433 6.48742s6.1219-.1822 9.0546.5297c2.9327.7118 3.0524 1.8263 4.3392 1.5042 1.2868-.322 2.766-1.0932 3.6039 1.7331.7396 2.4873-1.3381 2.1738-1.3381 2.9534 0 .7797-.2779 1.9874.0385 2.7247.3164.7373.1411 2.517.419 3.5254.2778 1.0085.6113 1.9238-.0171 3.2247 0 0 .3078 2.1907-.3848 3.3941H30.016s-.1197-.6865.6926-1.0085h-.0128Z"/><path fill="#fff" d="M53.625 7.25h4.0614v22.8667h12.9488v3.6898H53.625V7.25Z"/><path fill="#fff" fill-opacity=".2" d="M53.625 7.25h4.0614v22.8667h12.9488v3.6898H53.625V7.25Z"/><path fill="#fff" fill-opacity=".2" d="M53.625 7.25h4.0614v22.8667h12.9488v3.6898H53.625V7.25Z"/><path fill="#fff" d="M92.9068 31.5547c-1.6442 2.0279-3.7326 2.691-6.0345 2.691-4.2066 0-6.9142-2.0279-6.9142-5.7178 0-3.3927 2.4855-5.1278 7.0594-5.976l5.7441-1.0678v-1.2529c0-2.0279-1.2428-2.8761-3.8052-2.8761-2.1951 0-4.3177.775-4.4244 3.2808h-3.8052c.111-4.6112 3.9162-6.454 8.2296-6.454 5.1206 0 7.5719 2.1743 7.5719 5.6403v13.9757h-3.6215v-2.2518.0086Zm-5.4494-.4047c2.5966 0 5.3042-1.438 5.3042-4.8695v-1.916l-5.0864 1.0678c-2.3062.4779-3.7667 1.0333-3.7667 2.988 0 1.6232 1.0975 2.7297 3.5489 2.7297Z"/><path fill="#fff" fill-opacity=".2" d="M92.9068 31.5547c-1.6442 2.0279-3.7326 2.691-6.0345 2.691-4.2066 0-6.9142-2.0279-6.9142-5.7178 0-3.3927 2.4855-5.1278 7.0594-5.976l5.7441-1.0678v-1.2529c0-2.0279-1.2428-2.8761-3.8052-2.8761-2.1951 0-4.3177.775-4.4244 3.2808h-3.8052c.111-4.6112 3.9162-6.454 8.2296-6.454 5.1206 0 7.5719 2.1743 7.5719 5.6403v13.9757h-3.6215v-2.2518.0086Zm-5.4494-.4047c2.5966 0 5.3042-1.438 5.3042-4.8695v-1.916l-5.0864 1.0678c-2.3062.4779-3.7667 1.0333-3.7667 2.988 0 1.6232 1.0975 2.7297 3.5489 2.7297Z"/><path fill="#fff" fill-opacity=".2" d="M92.9068 31.5547c-1.6442 2.0279-3.7326 2.691-6.0345 2.691-4.2066 0-6.9142-2.0279-6.9142-5.7178 0-3.3927 2.4855-5.1278 7.0594-5.976l5.7441-1.0678v-1.2529c0-2.0279-1.2428-2.8761-3.8052-2.8761-2.1951 0-4.3177.775-4.4244 3.2808h-3.8052c.111-4.6112 3.9162-6.454 8.2296-6.454 5.1206 0 7.5719 2.1743 7.5719 5.6403v13.9757h-3.6215v-2.2518.0086Zm-5.4494-.4047c2.5966 0 5.3042-1.438 5.3042-4.8695v-1.916l-5.0864 1.0678c-2.3062.4779-3.7667 1.0333-3.7667 2.988 0 1.6232 1.0975 2.7297 3.5489 2.7297Z"/><path fill="#fff" d="M120.094 17.6134c-1.499 0-4.501.8482-4.501 5.5671v10.6217h-3.84V21.8544c0-2.4714-1.208-4.241-3.549-4.241-1.499 0-4.497.8482-4.497 5.5671v10.6217h-3.839V14.6254h3.694v2.6909c1.098-1.7695 2.926-3.1344 5.672-3.1344 2.746 0 4.68 1.4768 5.633 3.6511 1.242-2.0667 3.254-3.6511 6.256-3.6511 4.173 0 6.368 3.3196 6.368 7.2634v12.3526h-3.84V21.8501c0-2.4714-1.208-4.241-3.548-4.241l-.009.0043Z"/><path fill="#fff" fill-opacity=".2" d="M120.094 17.6134c-1.499 0-4.501.8482-4.501 5.5671v10.6217h-3.84V21.8544c0-2.4714-1.208-4.241-3.549-4.241-1.499 0-4.497.8482-4.497 5.5671v10.6217h-3.839V14.6254h3.694v2.6909c1.098-1.7695 2.926-3.1344 5.672-3.1344 2.746 0 4.68 1.4768 5.633 3.6511 1.242-2.0667 3.254-3.6511 6.256-3.6511 4.173 0 6.368 3.3196 6.368 7.2634v12.3526h-3.84V21.8501c0-2.4714-1.208-4.241-3.548-4.241l-.009.0043Z"/><path fill="#fff" fill-opacity=".2" d="M120.094 17.6134c-1.499 0-4.501.8482-4.501 5.5671v10.6217h-3.84V21.8544c0-2.4714-1.208-4.241-3.549-4.241-1.499 0-4.497.8482-4.497 5.5671v10.6217h-3.839V14.6254h3.694v2.6909c1.098-1.7695 2.926-3.1344 5.672-3.1344 2.746 0 4.68 1.4768 5.633 3.6511 1.242-2.0667 3.254-3.6511 6.256-3.6511 4.173 0 6.368 3.3196 6.368 7.2634v12.3526h-3.84V21.8501c0-2.4714-1.208-4.241-3.548-4.241l-.009.0043Z"/><path fill="#fff" d="M142.942 31.5547c-1.644 2.0279-3.732 2.691-6.034 2.691-4.207 0-6.915-2.0279-6.915-5.7178 0-3.3927 2.486-5.1278 7.06-5.976l5.744-1.0678v-1.2529c0-2.0279-1.243-2.8761-3.805-2.8761-2.195 0-4.318.775-4.425 3.2808h-3.805c.111-4.6112 3.916-6.454 8.23-6.454 5.12 0 7.572 2.1743 7.572 5.6403v13.9757h-3.622v-2.2518.0086Zm-5.449-.4047c2.596 0 5.304-1.438 5.304-4.8695v-1.916l-5.086 1.0678c-2.307.4779-3.767 1.0333-3.767 2.988 0 1.6232 1.097 2.7297 3.549 2.7297Z"/><path fill="#fff" fill-opacity=".2" d="M142.942 31.5547c-1.644 2.0279-3.732 2.691-6.034 2.691-4.207 0-6.915-2.0279-6.915-5.7178 0-3.3927 2.486-5.1278 7.06-5.976l5.744-1.0678v-1.2529c0-2.0279-1.243-2.8761-3.805-2.8761-2.195 0-4.318.775-4.425 3.2808h-3.805c.111-4.6112 3.916-6.454 8.23-6.454 5.12 0 7.572 2.1743 7.572 5.6403v13.9757h-3.622v-2.2518.0086Zm-5.449-.4047c2.596 0 5.304-1.438 5.304-4.8695v-1.916l-5.086 1.0678c-2.307.4779-3.767 1.0333-3.767 2.988 0 1.6232 1.097 2.7297 3.549 2.7297Z"/><path fill="#fff" fill-opacity=".2" d="M142.942 31.5547c-1.644 2.0279-3.732 2.691-6.034 2.691-4.207 0-6.915-2.0279-6.915-5.7178 0-3.3927 2.486-5.1278 7.06-5.976l5.744-1.0678v-1.2529c0-2.0279-1.243-2.8761-3.805-2.8761-2.195 0-4.318.775-4.425 3.2808h-3.805c.111-4.6112 3.916-6.454 8.23-6.454 5.12 0 7.572 2.1743 7.572 5.6403v13.9757h-3.622v-2.2518.0086Zm-5.449-.4047c2.596 0 5.304-1.438 5.304-4.8695v-1.916l-5.086 1.0678c-2.307.4779-3.767 1.0333-3.767 2.988 0 1.6232 1.097 2.7297 3.549 2.7297Z"/><path fill="#fff" d="M150.467 7.25h3.746v26.5522h-3.746V7.25Z"/><path fill="#fff" fill-opacity=".2" d="M150.467 7.25h3.746v26.5522h-3.746V7.25Z"/><path fill="#fff" fill-opacity=".2" d="M150.467 7.25h3.746v26.5522h-3.746V7.25Z"/><path fill="#fff" d="M73.2275 7.25h3.7454v26.5522h-3.7454V7.25Z"/><path fill="#fff" fill-opacity=".2" d="M73.2275 7.25h3.7454v26.5522h-3.7454V7.25Z"/><path fill="#fff" fill-opacity=".2" d="M73.2275 7.25h3.7454v26.5522h-3.7454V7.25Z"/><path fill="#fff" d="M166.961 17.6134c-1.465 0-4.865.8482-4.865 5.5671v10.6217h-3.839V14.6254h3.694v2.6909c1.281-1.8083 3.254-3.1344 6.034-3.1344 4.609 0 6.77 3.3196 6.77 7.2634v12.3526h-3.806V21.8501c0-2.4714-1.208-4.241-3.988-4.241v.0043Z"/><path fill="#fff" fill-opacity=".2" d="M166.961 17.6134c-1.465 0-4.865.8482-4.865 5.5671v10.6217h-3.839V14.6254h3.694v2.6909c1.281-1.8083 3.254-3.1344 6.034-3.1344 4.609 0 6.77 3.3196 6.77 7.2634v12.3526h-3.806V21.8501c0-2.4714-1.208-4.241-3.988-4.241v.0043Z"/><path fill="#fff" fill-opacity=".2" d="M166.961 17.6134c-1.465 0-4.865.8482-4.865 5.5671v10.6217h-3.839V14.6254h3.694v2.6909c1.281-1.8083 3.254-3.1344 6.034-3.1344 4.609 0 6.77 3.3196 6.77 7.2634v12.3526h-3.806V21.8501c0-2.4714-1.208-4.241-3.988-4.241v.0043Z"/><path fill="#fff" d="M192.337 33.8065v-2.7297c-1.315 1.9547-3.404 3.1732-6.218 3.1732-5.595 0-8.67-4.2797-8.67-10.0319s3.075-10.0319 8.67-10.0319c2.742 0 4.757 1.1065 6.073 2.9881V7.25431h3.839V33.8065h-3.694Zm-5.488-2.8804c3.694 0 5.45-2.7641 5.45-6.7123s-1.756-6.7123-5.45-6.7123-5.449 2.7641-5.449 6.7123 1.755 6.7123 5.449 6.7123Z"/><path fill="#fff" fill-opacity=".2" d="M192.337 33.8065v-2.7297c-1.315 1.9547-3.404 3.1732-6.218 3.1732-5.595 0-8.67-4.2797-8.67-10.0319s3.075-10.0319 8.67-10.0319c2.742 0 4.757 1.1065 6.073 2.9881V7.25431h3.839V33.8065h-3.694Zm-5.488-2.8804c3.694 0 5.45-2.7641 5.45-6.7123s-1.756-6.7123-5.45-6.7123-5.449 2.7641-5.449 6.7123 1.755 6.7123 5.449 6.7123Z"/><path fill="#fff" fill-opacity=".2" d="M192.337 33.8065v-2.7297c-1.315 1.9547-3.404 3.1732-6.218 3.1732-5.595 0-8.67-4.2797-8.67-10.0319s3.075-10.0319 8.67-10.0319c2.742 0 4.757 1.1065 6.073 2.9881V7.25431h3.839V33.8065h-3.694Zm-5.488-2.8804c3.694 0 5.45-2.7641 5.45-6.7123s-1.756-6.7123-5.45-6.7123-5.449 2.7641-5.449 6.7123 1.755 6.7123 5.449 6.7123Z"/><path fill="#fff" d="M198.623 24.2181c0-5.7522 3.511-10.0319 9.144-10.0319s9.144 4.2022 9.144 10.217v1.1066h-14.376c.368 3.3195 2.157 5.4938 5.232 5.4938 2.34 0 4.096-1.1065 4.903-3.0612h3.839c-1.209 3.7975-4.39 6.3076-8.742 6.3076-5.633 0-9.144-4.2797-9.144-10.0319Zm14.303-1.7739c-.474-3.0225-2.268-5.0159-5.159-5.0159s-4.685 1.9934-5.159 5.0159h10.318Z"/><path fill="#fff" fill-opacity=".2" d="M198.623 24.2181c0-5.7522 3.511-10.0319 9.144-10.0319s9.144 4.2022 9.144 10.217v1.1066h-14.376c.368 3.3195 2.157 5.4938 5.232 5.4938 2.34 0 4.096-1.1065 4.903-3.0612h3.839c-1.209 3.7975-4.39 6.3076-8.742 6.3076-5.633 0-9.144-4.2797-9.144-10.0319Zm14.303-1.7739c-.474-3.0225-2.268-5.0159-5.159-5.0159s-4.685 1.9934-5.159 5.0159h10.318Z"/><path fill="#fff" fill-opacity=".2" d="M198.623 24.2181c0-5.7522 3.511-10.0319 9.144-10.0319s9.144 4.2022 9.144 10.217v1.1066h-14.376c.368 3.3195 2.157 5.4938 5.232 5.4938 2.34 0 4.096-1.1065 4.903-3.0612h3.839c-1.209 3.7975-4.39 6.3076-8.742 6.3076-5.633 0-9.144-4.2797-9.144-10.0319Zm14.303-1.7739c-.474-3.0225-2.268-5.0159-5.159-5.0159s-4.685 1.9934-5.159 5.0159h10.318Z"/><path fill="#fff" d="m225.87 27.0555-4.83 6.751h-4.39l7.025-9.808-6.696-9.3688h4.463l4.463 6.2344 4.424-6.2344h4.39L228.1 23.921l7.025 9.8855h-4.463l-4.792-6.751Z"/><path fill="#fff" fill-opacity=".2" d="m225.87 27.0555-4.83 6.751h-4.39l7.025-9.808-6.696-9.3688h4.463l4.463 6.2344 4.424-6.2344h4.39L228.1 23.921l7.025 9.8855h-4.463l-4.792-6.751Z"/><path fill="#fff" fill-opacity=".2" d="m225.87 27.0555-4.83 6.751h-4.39l7.025-9.808-6.696-9.3688h4.463l4.463 6.2344 4.424-6.2344h4.39L228.1 23.921l7.025 9.8855h-4.463l-4.792-6.751Z"/><defs><linearGradient id="a" x1="6.1696" x2="30.1516" y1="5.35542" y2="37.6786" gradientUnits="userSpaceOnUse"><stop stop-color="#37D7FA"/><stop offset=".4" stop-color="#4B72FE"/><stop offset=".68" stop-color="#FF8DF2"/><stop offset="1" stop-color="#FF8705"/></linearGradient></defs></svg>