<svg xmlns="http://www.w3.org/2000/svg" width="40" height="40" viewBox="0 0 40.5 40" fill="none">
<path fill="#000" d="M33.9555 0H6.54446C2.99909 0 .125 2.85624.125 6.37958V33.6204C.125 37.1438 2.99909 40 6.54446 40H33.9555c3.5454 0 6.4195-2.8562 6.4195-6.3796V6.37958C40.375 2.85624 37.5009 0 33.9555 0Z"/>
<path fill="#000" fill-opacity=".2" d="M33.9555 0H6.54446C2.99909 0 .125 2.85624.125 6.37958V33.6204C.125 37.1438 2.99909 40 6.54446 40H33.9555c3.5454 0 6.4195-2.8562 6.4195-6.3796V6.37958C40.375 2.85624 37.5009 0 33.9555 0Z"/>
<path fill="#000" fill-opacity=".2" d="M33.9555 0H6.54446C2.99909 0 .125 2.85624.125 6.37958V33.6204C.125 37.1438 2.99909 40 6.54446 40H33.9555c3.5454 0 6.4195-2.8562 6.4195-6.3796V6.37958C40.375 2.85624 37.5009 0 33.9555 0Z"/>
<path fill="url(#llamaindex-mark-dark)" d="M30.6958 34.4915s1.7741-2.928-2.377-5.0255c0 0 .8037 3.1314-1.0773 6.034h-1.9323s-.0856-.6102.731-.9195c1.71-.6526 1.7784-3.4365 1.2782-3.7713-1.5262-1.0169-2.129-1.8856-1.7356-4.0975 0 0-2.642.9577-5.9253.5466-.171-.0212-.3377.0594-.4232.2077-.1753.3008-.5302.8432-1.1158 1.4703 0 0-.1497 1.7331-.543 2.9662 0 0 .1497 2.1102-.389 3.5933h-2.3086s.0257-.9195 1.1372-1.0382c1.3595-.1441-.2437-4.3348-.2437-4.3348s-.0684 2.2839-1.4535 5.3645h-1.7656s0-.8899.8978-1.1102c1.4578-.3602.808-2.9619.5728-4.4069-.2351-1.4491-.5643-4.1568-1.757-5.6611-1.1928-1.5042-1.7998-1.4915-1.8725-4.2543 0 0-1.01321-1.5848-.64983-3.6738 0 0-.75669-2.5085.38053-6.2162 0 0-2.68907-.54236-2.74038-1.20339-.05557-.66103.14536-1.41104.86357-1.4746.71821-.06356 1.76991-.1695 1.77421-.91951 0-.75001-.91492-1.74579-.34633-2.03817.53013-.27543 1.14573 1.50003 1.55183 1.22036.2651-.18221-.7225-1.13985-.0769-1.00849.265.05508 2.5137.79238 3.2747 4.68228.761 3.88992.4446 6.48742 1.5433 6.48742s6.1219-.1822 9.0546.5297c2.9327.7118 3.0524 1.8263 4.3392 1.5042 1.2868-.322 2.766-1.0932 3.6039 1.7331.7396 2.4873-1.3381 2.1738-1.3381 2.9534 0 .7797-.2779 1.9874.0385 2.7247.3164.7373.1411 2.517.419 3.5254.2778 1.0085.6113 1.9238-.0171 3.2247 0 0 .3078 2.1907-.3848 3.3941H30.016s-.1197-.6865.6926-1.0085h-.0128Z"/>
<defs><linearGradient id="llamaindex-mark-dark" x1="6.1696" x2="30.1516" y1="5.35542" y2="37.6786" gradientUnits="userSpaceOnUse"><stop stop-color="#37D7FA"/><stop offset=".4" stop-color="#4B72FE"/><stop offset=".68" stop-color="#FF8DF2"/><stop offset="1" stop-color="#FF8705"/></linearGradient></defs>
</svg>
