<svg xmlns="http://www.w3.org/2000/svg" width="354" height="460" viewBox="0 0 708 920" role="img" aria-label="FileRouter logo">
  <path fill="#00bdf7" d="M0 0H307V103H0ZM409 0H512V103H409ZM0 102H307V205H0ZM409 102H614V205H409ZM0 204H307V307H0ZM409 204H708V307H409ZM102 307H307V410H102ZM0 409H307V512H0ZM409 409H708V512H409ZM0 511H307V614H0ZM409 511H512V614H409ZM613 511H708V614H613ZM0 613H307V716H0ZM409 613H708V716H409ZM102 716H307V819H102ZM409 716H708V819H409ZM0 818H103V920H0ZM204 818H307V920H204ZM409 818H708V920H409Z" />
</svg>
