<svg xmlns="http://www.w3.org/2000/svg" width="430" height="84" viewBox="0 10 430 84" role="img" aria-label="FileRouter">
  <g fill="#00bdf7" transform="translate(38 17) scale(.152174)">
    <rect width="157" height="460" rx="22" ry="22" />
    <path d="M210 0c-6 0-11 3.5-13 9v119c0 12.2 9.8 22 22 22h123c5 0 9.5-3 11.2-7.7.6-4.4.4-9.4-3-12.8L220.5 4c-2.8-2.6-6.5-4-10.5-4Z" />
    <rect x="197" y="193" width="157" height="267" rx="22" ry="22" />
  </g>
  <g transform="translate(0 -7)">
  <path fill="#18181b" transform="translate(122 80) scale(.06 -.06)" d="M92 0V710h446v-84H135l43 44V344l-43 44h385v-82H135l43 44V0Zm578 0v530h84V0Zm-2 613v98h88v-98Zm350-613q-46 0-75 24t-29 76v610h84V107q0-16 8.5-24.5T1031 74h46V0Zm370-12q-75 0-129.5 34T1174.5 118.5Q1145 181 1145 265t29.5 146q29.5 62 83 96.5T1384 542q69 0 122-32.5t82.5-94.5Q1618 353 1618 264v-25h-385q5-85 45.5-128t109.5-43q52 0 85.5 24.5T1520 157l90-7q-21-71-79.5-116.5T1388-12Zm-155 325h293q-6 77-44.5 113T1384 462q-61 0-100.5-37.5T1233 313Zm521-313v710h269q75 0 129-26t83.5-74.5Q2265 561 2265 495q0-48-22.5-85.5T2185 350q-35-22-73-24l-6 9q65 0 102.5-30t43.5-96l20-209h-87l-18 200q-4 44-31.5 65T2046 286h-206V0Zm86 370h194q65 0 103 33t38 94q0 62-39 95.5t-113 33.5h-183Zm781-382q-73 0-128 34t-85 96.5Q2378 181 2378 265q0 85 30 147t85 96q55 34 128 34t127.5-34q54.5-34 84.5-96t30-147q0-84-30-146.5T2748.5 22Q2694-12 2621-12Zm0 80q73 0 113.5 52.5T2775 265q0 92-40.5 144.5T2621 462q-73 0-114-52.5T2466 265q0-92 41-144.5T2621 68Zm540-80q-79 0-126.5 53.5T2987 189v341h84V212q0-77 27.5-113.5T3183 62q63 0 99 40.5t36 111.5v316h84V0h-80v131l13-7q-16-65-61-100.5T3161-12Zm595 12q-72 0-106.5 33T3615 136v518h84V138q0-36 16-50t49-14h76V0Zm-219 456v74h303v-74Zm624-468q-75 0-129.5 34T3947.5 118.5Q3918 181 3918 265t29.5 146q29.5 62 83 96.5T4157 542q69 0 122-32.5t82.5-94.5Q4391 353 4391 264v-25h-385q5-85 45.5-128t109.5-43q52 0 85.5 24.5T4293 157l90-7q-21-71-79.5-116.5T4161-12Zm-155 325h293q-6 77-44.5 113T4157 462q-61 0-100.5-37.5T4006 313Zm509-313v530h74l4-134-8 3q10 68 43.5 99.5T4718 530h52v-80h-51q-40 0-66.5-14.5T4612.5 392.5Q4599 364 4599 320V0Z" />
  </g>
</svg>
